<svg width="25" height="25" viewBox="0 0 25 25" fill="none" xmlns="http://www.w3.org/2000/svg">
<path fill-rule="evenodd" clip-rule="evenodd" d="M4.6875 3.90625C4.25603 3.90625 3.90625 4.25603 3.90625 4.6875V20.3125C3.90625 20.744 4.25603 21.0937 4.6875 21.0937H20.3125C20.744 21.0937 21.0937 20.744 21.0937 20.3125V4.6875C21.0937 4.25603 20.744 3.90625 20.3125 3.90625H4.6875ZM2.34375 4.6875C2.34375 3.39308 3.39308 2.34375 4.6875 2.34375H20.3125C21.6069 2.34375 22.6562 3.39308 22.6562 4.6875V20.3125C22.6562 21.6069 21.6069 22.6562 20.3125 22.6562H4.6875C3.39308 22.6562 2.34375 21.6069 2.34375 20.3125V4.6875Z" fill="#4B4B4B"/>
<path fill-rule="evenodd" clip-rule="evenodd" d="M13.2812 16.1459C13.2812 15.7144 13.631 15.3646 14.0625 15.3646H18.2292C18.6606 15.3646 19.0104 15.7144 19.0104 16.1459C19.0104 16.5773 18.6606 16.9271 18.2292 16.9271H14.0625C13.631 16.9271 13.2812 16.5773 13.2812 16.1459Z" fill="#4B4B4B"/>
<path fill-rule="evenodd" clip-rule="evenodd" d="M8.85417 5.98962C9.28564 5.98962 9.63542 6.3394 9.63542 6.77087V10.9375C9.63542 11.369 9.28564 11.7188 8.85417 11.7188C8.4227 11.7188 8.07292 11.369 8.07292 10.9375V6.77087C8.07292 6.3394 8.4227 5.98962 8.85417 5.98962Z" fill="#4B4B4B"/>
<path fill-rule="evenodd" clip-rule="evenodd" d="M5.98958 8.85413C5.98958 8.42265 6.33936 8.07288 6.77083 8.07288H10.9375C11.369 8.07288 11.7187 8.42265 11.7187 8.85413C11.7187 9.2856 11.369 9.63538 10.9375 9.63538H6.77083C6.33936 9.63538 5.98958 9.2856 5.98958 8.85413Z" fill="#4B4B4B"/>
<path fill-rule="evenodd" clip-rule="evenodd" d="M18.2608 6.7392C18.5659 7.0443 18.5659 7.53896 18.2608 7.84405L7.8441 18.2607C7.539 18.5658 7.04434 18.5658 6.73924 18.2607C6.43415 17.9556 6.43415 17.461 6.73924 17.1559L17.1559 6.7392C17.461 6.4341 17.9557 6.4341 18.2608 6.7392Z" fill="#4B4B4B"/>
</svg>
