<svg width="25" height="25" viewBox="0 0 25 25" fill="none" xmlns="http://www.w3.org/2000/svg">
<path fill-rule="evenodd" clip-rule="evenodd" d="M2.34375 4.6875C2.34375 4.25603 2.69353 3.90625 3.125 3.90625H21.875C22.3065 3.90625 22.6562 4.25603 22.6562 4.6875C22.6562 5.11897 22.3065 5.46875 21.875 5.46875H3.125C2.69353 5.46875 2.34375 5.11897 2.34375 4.6875Z" fill="#4B4B4B"/>
<path fill-rule="evenodd" clip-rule="evenodd" d="M2.34375 9.89584C2.34375 9.46437 2.69353 9.11459 3.125 9.11459H17.7083C18.1398 9.11459 18.4896 9.46437 18.4896 9.89584C18.4896 10.3273 18.1398 10.6771 17.7083 10.6771H3.125C2.69353 10.6771 2.34375 10.3273 2.34375 9.89584Z" fill="#4B4B4B"/>
<path fill-rule="evenodd" clip-rule="evenodd" d="M2.34375 15.1042C2.34375 14.6727 2.69353 14.3229 3.125 14.3229H21.875C22.3065 14.3229 22.6562 14.6727 22.6562 15.1042C22.6562 15.5356 22.3065 15.8854 21.875 15.8854H3.125C2.69353 15.8854 2.34375 15.5356 2.34375 15.1042Z" fill="#4B4B4B"/>
<path fill-rule="evenodd" clip-rule="evenodd" d="M2.34375 20.3125C2.34375 19.881 2.69353 19.5312 3.125 19.5312H17.7083C18.1398 19.5312 18.4896 19.881 18.4896 20.3125C18.4896 20.744 18.1398 21.0937 17.7083 21.0937H3.125C2.69353 21.0937 2.34375 20.744 2.34375 20.3125Z" fill="#4B4B4B"/>
</svg>
