<svg width="25" height="25" viewBox="0 0 25 25" fill="none" xmlns="http://www.w3.org/2000/svg">
<path fill-rule="evenodd" clip-rule="evenodd" d="M1.30208 2.60416C1.30208 2.17268 1.65186 1.82291 2.08333 1.82291H22.9167C23.3481 1.82291 23.6979 2.17268 23.6979 2.60416V8.85416C23.6979 9.28563 23.3481 9.63541 22.9167 9.63541H2.08333C1.65186 9.63541 1.30208 9.28563 1.30208 8.85416V2.60416ZM2.86458 3.38541V8.07291H22.1354V3.38541H2.86458Z" fill="#4B4B4B"/>
<path fill-rule="evenodd" clip-rule="evenodd" d="M15.4888 13.5096C15.7912 13.2077 16.2801 13.2048 16.5861 13.5031L18.9197 15.7781C19.2286 16.0793 19.2349 16.5739 18.9337 16.8829C18.6325 17.1918 18.1379 17.1981 17.829 16.8969L16.0472 15.1599L12.4035 18.7977C12.103 19.0977 11.6178 19.1028 11.3111 18.8091L8.43943 16.0589L2.63857 21.9194C2.33504 22.2261 1.84039 22.2286 1.53373 21.9251C1.22708 21.6216 1.22455 21.1269 1.52808 20.8203L7.86954 14.4136C8.16954 14.1105 8.65715 14.104 8.96514 14.3989L11.8401 17.1522L15.4888 13.5096Z" fill="#4B4B4B"/>
<path fill-rule="evenodd" clip-rule="evenodd" d="M22.9167 7.6416C23.3481 7.6416 23.6979 7.99138 23.6979 8.42285V21.9645C23.6979 22.396 23.3481 22.7458 22.9167 22.7458C22.4852 22.7458 22.1354 22.396 22.1354 21.9645V8.42285C22.1354 7.99138 22.4852 7.6416 22.9167 7.6416Z" fill="#4B4B4B"/>
<path fill-rule="evenodd" clip-rule="evenodd" d="M2.08333 7.6416C2.5148 7.6416 2.86458 7.99138 2.86458 8.42285V15.7145C2.86458 16.146 2.5148 16.4958 2.08333 16.4958C1.65186 16.4958 1.30208 16.146 1.30208 15.7145V8.42285C1.30208 7.99138 1.65186 7.6416 2.08333 7.6416Z" fill="#4B4B4B"/>
<path fill-rule="evenodd" clip-rule="evenodd" d="M5.99771 22.3958C5.99771 21.9644 6.34749 21.6146 6.77896 21.6146H22.9167C23.3482 21.6146 23.698 21.9644 23.698 22.3958C23.698 22.8273 23.3482 23.1771 22.9167 23.1771H6.77896C6.34749 23.1771 5.99771 22.8273 5.99771 22.3958Z" fill="#4B4B4B"/>
<path fill-rule="evenodd" clip-rule="evenodd" d="M8.07292 5.72916C8.07292 5.29768 8.4227 4.94791 8.85417 4.94791H19.7917C20.2231 4.94791 20.5729 5.29768 20.5729 5.72916C20.5729 6.16063 20.2231 6.51041 19.7917 6.51041H8.85417C8.4227 6.51041 8.07292 6.16063 8.07292 5.72916Z" fill="#4B4B4B"/>
<path fill-rule="evenodd" clip-rule="evenodd" d="M4.42708 5.72739C4.42708 5.29591 4.77686 4.94614 5.20833 4.94614H5.72916C6.16063 4.94614 6.51041 5.29591 6.51041 5.72739C6.51041 6.15886 6.16063 6.50864 5.72916 6.50864H5.20833C4.77686 6.50864 4.42708 6.15886 4.42708 5.72739Z" fill="#4B4B4B"/>
</svg>
