<svg width="25" height="25" viewBox="0 0 25 25" fill="none" xmlns="http://www.w3.org/2000/svg">
<path fill-rule="evenodd" clip-rule="evenodd" d="M11.7187 2.89578C6.76261 3.29345 2.86458 7.44149 2.86458 12.5C2.86458 17.8215 7.1785 22.1354 12.5 22.1354C17.5585 22.1354 21.7065 18.2374 22.1042 13.2812H12.5C12.0685 13.2812 11.7187 12.9315 11.7187 12.5V2.89578ZM1.30208 12.5C1.30208 6.31554 6.31555 1.30206 12.5 1.30206C12.9315 1.30206 13.2812 1.65184 13.2812 2.08331V11.7187H22.9167C23.3481 11.7187 23.6979 12.0685 23.6979 12.5C23.6979 18.6844 18.6844 23.6979 12.5 23.6979C6.31555 23.6979 1.30208 18.6844 1.30208 12.5Z" fill="#4B4B4B"/>
<path fill-rule="evenodd" clip-rule="evenodd" d="M15.1627 1.93041C15.3632 1.78322 15.6218 1.7403 15.8591 1.81484C19.3426 2.90892 22.0911 5.65746 23.1851 9.14092C23.2597 9.37822 23.2168 9.63682 23.0696 9.83733C22.9224 10.0378 22.6885 10.1563 22.4398 10.1563H15.625C15.1935 10.1563 14.8438 9.80649 14.8438 9.37501V2.56019C14.8438 2.31146 14.9622 2.07759 15.1627 1.93041ZM16.4062 3.68904V8.59376H21.3109C20.3425 6.41277 18.5872 4.65753 16.4062 3.68904Z" fill="#4B4B4B"/>
</svg>
