<svg width="25" height="25" viewBox="0 0 25 25" fill="none" xmlns="http://www.w3.org/2000/svg">
<path fill-rule="evenodd" clip-rule="evenodd" d="M17.9687 11.4584C17.9687 11.0269 18.3185 10.6771 18.75 10.6771H22.9167C23.3481 10.6771 23.6979 11.0269 23.6979 11.4584V19.7917C23.6979 20.2232 23.3481 20.573 22.9167 20.573H20.6361L19.3024 21.9066C18.9973 22.2117 18.5027 22.2117 18.1976 21.9066L16.8639 20.573H11.4583C11.0269 20.573 10.6771 20.2232 10.6771 19.7917V15.625C10.6771 15.1936 11.0269 14.8438 11.4583 14.8438H17.9687V11.4584ZM19.5312 12.2396V15.625C19.5312 16.0565 19.1815 16.4063 18.75 16.4063H12.2396V19.0105H17.1875C17.3947 19.0105 17.5934 19.0928 17.7399 19.2393L18.75 20.2494L19.7601 19.2393C19.9066 19.0928 20.1053 19.0105 20.3125 19.0105H22.1354V12.2396H19.5312Z" fill="#4B4B4B"/>
<path fill-rule="evenodd" clip-rule="evenodd" d="M1.30208 3.125C1.30208 2.69353 1.65186 2.34375 2.08333 2.34375H18.75C19.1815 2.34375 19.5312 2.69353 19.5312 3.125V15.625C19.5312 16.0565 19.1815 16.4062 18.75 16.4062H9.17777L7.32326 18.2608C7.01816 18.5659 6.5235 18.5659 6.2184 18.2608L4.36389 16.4062H2.08333C1.65186 16.4062 1.30208 16.0565 1.30208 15.625V3.125ZM2.86458 3.90625V14.8437H4.68749C4.8947 14.8437 5.09341 14.9261 5.23992 15.0726L6.77083 16.6035L8.30173 15.0726C8.44825 14.9261 8.64696 14.8437 8.85416 14.8437H17.9687V3.90625H2.86458Z" fill="#4B4B4B"/>
<path fill-rule="evenodd" clip-rule="evenodd" d="M9.11458 9.375C9.11458 8.94353 9.46436 8.59375 9.89583 8.59375H10.4167C10.8481 8.59375 11.1979 8.94353 11.1979 9.375C11.1979 9.80647 10.8481 10.1562 10.4167 10.1562H9.89583C9.46436 10.1562 9.11458 9.80647 9.11458 9.375Z" fill="#4B4B4B"/>
<path fill-rule="evenodd" clip-rule="evenodd" d="M12.7604 9.375C12.7604 8.94353 13.1102 8.59375 13.5417 8.59375H14.0625C14.494 8.59375 14.8438 8.94353 14.8438 9.375C14.8438 9.80647 14.494 10.1562 14.0625 10.1562H13.5417C13.1102 10.1562 12.7604 9.80647 12.7604 9.375Z" fill="#4B4B4B"/>
<path fill-rule="evenodd" clip-rule="evenodd" d="M5.46875 9.375C5.46875 8.94353 5.81853 8.59375 6.25 8.59375H6.77083C7.20231 8.59375 7.55208 8.94353 7.55208 9.375C7.55208 9.80647 7.20231 10.1562 6.77083 10.1562H6.25C5.81853 10.1562 5.46875 9.80647 5.46875 9.375Z" fill="#4B4B4B"/>
</svg>
