<svg width="25" height="25" viewBox="0 0 25 25" fill="none" xmlns="http://www.w3.org/2000/svg">
<path fill-rule="evenodd" clip-rule="evenodd" d="M5.98958 2.08331C5.98958 1.65184 6.33936 1.30206 6.77083 1.30206H15.625C16.0565 1.30206 16.4062 1.65184 16.4062 2.08331V7.55206H21.3542C21.7856 7.55206 22.1354 7.90184 22.1354 8.33331V19.7916C22.1354 20.2231 21.7856 20.5729 21.3542 20.5729H6.77083C6.33936 20.5729 5.98958 20.2231 5.98958 19.7916V2.08331ZM7.55208 2.86456V19.0104H20.5729V9.11456H15.625C15.1935 9.11456 14.8437 8.76479 14.8437 8.33331V2.86456H7.55208Z" fill="#4B4B4B"/>
<path fill-rule="evenodd" clip-rule="evenodd" d="M15.0971 1.50742C15.4152 1.21586 15.9093 1.23735 16.2009 1.55541L21.9301 7.80541C22.2216 8.12347 22.2001 8.61766 21.8821 8.90922C21.564 9.20078 21.0698 9.17929 20.7783 8.86123L15.0491 2.61123C14.7575 2.29317 14.779 1.79897 15.0971 1.50742Z" fill="#4B4B4B"/>
<path fill-rule="evenodd" clip-rule="evenodd" d="M3.64583 9.63544C4.0773 9.63544 4.42708 9.98521 4.42708 10.4167V22.1354H14.5833C15.0148 22.1354 15.3646 22.4852 15.3646 22.9167C15.3646 23.3482 15.0148 23.6979 14.5833 23.6979H3.64583C3.21436 23.6979 2.86458 23.3482 2.86458 22.9167V10.4167C2.86458 9.98521 3.21436 9.63544 3.64583 9.63544Z" fill="#4B4B4B"/>
<path fill-rule="evenodd" clip-rule="evenodd" d="M9.11458 10.4167C9.11458 9.98521 9.46436 9.63544 9.89583 9.63544H11.9792C12.4106 9.63544 12.7604 9.98521 12.7604 10.4167C12.7604 10.8482 12.4106 11.1979 11.9792 11.1979H9.89583C9.46436 11.1979 9.11458 10.8482 9.11458 10.4167Z" fill="#4B4B4B"/>
<path fill-rule="evenodd" clip-rule="evenodd" d="M9.11458 14.5833C9.11458 14.1518 9.46436 13.8021 9.89583 13.8021H16.1458C16.5773 13.8021 16.9271 14.1518 16.9271 14.5833C16.9271 15.0148 16.5773 15.3646 16.1458 15.3646H9.89583C9.46436 15.3646 9.11458 15.0148 9.11458 14.5833Z" fill="#4B4B4B"/>
</svg>
