<svg width="25" height="25" viewBox="0 0 25 25" fill="none" xmlns="http://www.w3.org/2000/svg">
<path d="M18.2292 13.2813C18.9483 13.2813 19.5312 13.8642 19.5312 14.5833V15.8854H16.9271V14.5833C16.9271 13.8642 17.5101 13.2813 18.2292 13.2813ZM21.0937 16.6666V14.5833C21.0937 13.0013 19.8112 11.7188 18.2292 11.7188C16.6471 11.7188 15.3646 13.0013 15.3646 14.5833V16.6663C15.3646 17.0978 15.7144 17.4479 16.1458 17.4479H20.3125C20.744 17.4479 21.0937 17.0981 21.0937 16.6666Z" fill="#1C1B1E"/>
<path d="M12.7604 16.6666C12.7604 16.2352 13.1102 15.8854 13.5417 15.8854H22.9167C23.3481 15.8854 23.6979 16.2352 23.6979 16.6666V22.9166C23.6979 23.3481 23.3481 23.6979 22.9167 23.6979H13.5417C13.1102 23.6979 12.7604 23.3481 12.7604 22.9166V16.6666ZM14.3229 17.4479V22.1354H22.1354V17.4479H14.3229Z" fill="#1C1B1E"/>
<path d="M15.8854 3.125C15.8854 3.55647 16.2352 3.90625 16.6667 3.90625H19.7917C20.5108 3.90625 21.0938 4.48922 21.0938 5.20833V8.33333C21.0938 8.76481 21.4435 9.11458 21.875 9.11458C22.3065 9.11458 22.6563 8.76481 22.6563 8.33333V5.20833C22.6563 3.62626 21.3737 2.34375 19.7917 2.34375H16.6667C16.2352 2.34375 15.8854 2.69353 15.8854 3.125Z" fill="#1C1B1E"/>
<path d="M3.125 15.8854C3.55647 15.8854 3.90625 16.2352 3.90625 16.6666V19.7916C3.90625 20.5107 4.48922 21.0937 5.20833 21.0937H8.33333C8.76481 21.0937 9.11458 21.4435 9.11458 21.875C9.11458 22.3064 8.76481 22.6562 8.33333 22.6562H5.20833C3.62626 22.6562 2.34375 21.3737 2.34375 19.7916V16.6666C2.34375 16.2352 2.69353 15.8854 3.125 15.8854Z" fill="#1C1B1E"/>
<path d="M2.08333 3.38538C2.5148 3.38538 2.86458 3.73515 2.86458 4.16663V10.4166C2.86458 10.4501 2.87657 10.5407 3.01763 10.689C3.16252 10.8412 3.4091 11.0139 3.77356 11.1758C4.50052 11.4989 5.55956 11.7187 6.77083 11.7187C7.98211 11.7187 9.04115 11.4989 9.7681 11.1758C10.1326 11.0139 10.3791 10.8412 10.524 10.689C10.6651 10.5407 10.6771 10.4501 10.6771 10.4166V4.16663C10.6771 3.73515 11.0269 3.38538 11.4583 3.38538C11.8898 3.38538 12.2396 3.73515 12.2396 4.16663V10.4166C12.2396 10.9585 11.9892 11.4159 11.6559 11.7661C11.3264 12.1124 10.8865 12.3886 10.4027 12.6037C9.43312 13.0346 8.1484 13.2812 6.77083 13.2812C5.39327 13.2812 4.10855 13.0346 3.13897 12.6037C2.65516 12.3886 2.21527 12.1124 1.88576 11.7661C1.55242 11.4159 1.30208 10.9585 1.30208 10.4166V4.16663C1.30208 3.73515 1.65186 3.38538 2.08333 3.38538Z" fill="#1C1B1E"/>
<path d="M2.08333 6.51038C2.5148 6.51038 2.86458 6.86015 2.86458 7.29163C2.86458 7.32506 2.87657 7.41574 3.01763 7.56396C3.16252 7.71621 3.4091 7.88886 3.77356 8.05084C4.50052 8.37394 5.55956 8.59371 6.77083 8.59371C7.98211 8.59371 9.04115 8.37394 9.7681 8.05084C10.1326 7.88886 10.3791 7.71621 10.524 7.56396C10.6651 7.41574 10.6771 7.32506 10.6771 7.29163C10.6771 6.86015 11.0269 6.51038 11.4583 6.51038C11.8898 6.51038 12.2396 6.86015 12.2396 7.29163C12.2396 7.83348 11.9892 8.29086 11.6559 8.64113C11.3264 8.98737 10.8865 9.26365 10.4027 9.47867C9.43312 9.9096 8.1484 10.1562 6.77083 10.1562C5.39327 10.1562 4.10855 9.9096 3.13897 9.47867C2.65516 9.26365 2.21527 8.98737 1.88576 8.64113C1.55242 8.29086 1.30208 7.83348 1.30208 7.29163C1.30208 6.86015 1.65186 6.51038 2.08333 6.51038Z" fill="#1C1B1E"/>
<path d="M3.01763 3.89436C2.87657 4.04258 2.86458 4.13326 2.86458 4.16671C2.86458 4.20014 2.87657 4.29082 3.01763 4.43904C3.16252 4.59129 3.4091 4.76394 3.77356 4.92592C4.50052 5.24902 5.55956 5.46879 6.77083 5.46879C7.98211 5.46879 9.04115 5.24902 9.7681 4.92593C10.1326 4.76394 10.3791 4.59129 10.524 4.43905C10.6651 4.29082 10.6771 4.20015 10.6771 4.16671C10.6771 4.13326 10.6651 4.04258 10.524 3.89436C10.3791 3.74211 10.1326 3.56947 9.7681 3.40748C9.04115 3.08439 7.98211 2.86462 6.77083 2.86462C5.55956 2.86462 4.50052 3.08439 3.77356 3.40748C3.4091 3.56947 3.16252 3.74212 3.01763 3.89436ZM3.13897 1.97965C4.10855 1.54873 5.39327 1.30212 6.77083 1.30212C8.1484 1.30212 9.43311 1.54873 10.4027 1.97965C10.8865 2.19468 11.3264 2.47095 11.6559 2.8172C11.9892 3.16747 12.2396 3.62486 12.2396 4.16671C12.2396 4.70856 11.9892 5.16594 11.6559 5.51621C11.3264 5.86245 10.8865 6.13873 10.4027 6.35375C9.43312 6.78468 8.1484 7.03129 6.77083 7.03129C5.39327 7.03129 4.10855 6.78468 3.13897 6.35375C2.65516 6.13873 2.21527 5.86245 1.88576 5.51621C1.55242 5.16594 1.30208 4.70856 1.30208 4.16671C1.30208 3.62485 1.55242 3.16747 1.88576 2.8172C2.21527 2.47095 2.65516 2.19468 3.13897 1.97965Z" fill="#1C1B1E"/>
</svg>
