<svg width="25" height="25" viewBox="0 0 25 25" fill="none" xmlns="http://www.w3.org/2000/svg">
<path fill-rule="evenodd" clip-rule="evenodd" d="M12.5 0.260406C12.9315 0.260406 13.2812 0.610184 13.2812 1.04166V23.9583C13.2812 24.3898 12.9315 24.7396 12.5 24.7396C12.0685 24.7396 11.7188 24.3898 11.7188 23.9583V1.04166C11.7188 0.610184 12.0685 0.260406 12.5 0.260406Z" fill="#4B4B4B"/>
<path fill-rule="evenodd" clip-rule="evenodd" d="M4.94792 7.8125C4.94792 4.79217 7.39635 2.34375 10.4167 2.34375H18.2289L18.2292 3.125L18.2291 3.90625H10.4167C8.25929 3.90625 6.51042 5.65512 6.51042 7.8125C6.51042 9.96988 8.25929 11.7187 10.4167 11.7187C10.8481 11.7187 11.1979 12.0685 11.1979 12.5C11.1979 12.9315 10.8481 13.2812 10.4167 13.2812C7.39635 13.2812 4.94792 10.8328 4.94792 7.8125ZM19.0104 3.125C19.0104 3.55647 18.6606 3.90625 18.2291 3.90625L18.2292 3.125L18.2289 2.34375C18.6604 2.34375 19.0104 2.69353 19.0104 3.125Z" fill="#4B4B4B"/>
<path fill-rule="evenodd" clip-rule="evenodd" d="M9.63541 12.5C9.63541 12.0685 9.98519 11.7188 10.4167 11.7188H14.5833C17.6037 11.7188 20.0521 14.1672 20.0521 17.1875C20.0521 20.2078 17.6037 22.6562 14.5833 22.6562H6.77107L6.77083 21.875L6.77089 21.0937H14.5833C16.7407 21.0937 18.4896 19.3449 18.4896 17.1875C18.4896 15.0301 16.7407 13.2812 14.5833 13.2812H10.4167C9.98519 13.2812 9.63541 12.9315 9.63541 12.5ZM5.98958 21.875C5.98958 21.4435 6.33942 21.0937 6.77089 21.0937L6.77083 21.875L6.77107 22.6562C6.33959 22.6562 5.98958 22.3065 5.98958 21.875Z" fill="#4B4B4B"/>
</svg>
