<svg width="25" height="25" viewBox="0 0 25 25" fill="none" xmlns="http://www.w3.org/2000/svg">
<path fill-rule="evenodd" clip-rule="evenodd" d="M7.29167 13.2812C6.2849 13.2812 5.46875 14.0974 5.46875 15.1042C5.46875 16.1109 6.2849 16.9271 7.29167 16.9271C8.29844 16.9271 9.11458 16.1109 9.11458 15.1042C9.11458 14.0974 8.29844 13.2812 7.29167 13.2812ZM3.90625 15.1042C3.90625 13.2345 5.42195 11.7188 7.29167 11.7188C9.16138 11.7188 10.6771 13.2345 10.6771 15.1042C10.6771 16.9739 9.16138 18.4896 7.29167 18.4896C5.42195 18.4896 3.90625 16.9739 3.90625 15.1042Z" fill="#4B4B4B"/>
<path fill-rule="evenodd" clip-rule="evenodd" d="M17.7083 13.2812C16.7016 13.2812 15.8854 14.0974 15.8854 15.1042C15.8854 16.1109 16.7016 16.9271 17.7083 16.9271C18.7151 16.9271 19.5313 16.1109 19.5313 15.1042C19.5313 14.0974 18.7151 13.2812 17.7083 13.2812ZM14.3229 15.1042C14.3229 13.2345 15.8386 11.7188 17.7083 11.7188C19.5781 11.7188 21.0938 13.2345 21.0938 15.1042C21.0938 16.9739 19.5781 18.4896 17.7083 18.4896C15.8386 18.4896 14.3229 16.9739 14.3229 15.1042Z" fill="#4B4B4B"/>
<path fill-rule="evenodd" clip-rule="evenodd" d="M12.5 2.86462C11.4932 2.86462 10.6771 3.68077 10.6771 4.68754C10.6771 5.69431 11.4932 6.51046 12.5 6.51046C13.5068 6.51046 14.3229 5.69431 14.3229 4.68754C14.3229 3.68077 13.5068 2.86462 12.5 2.86462ZM9.11458 4.68754C9.11458 2.81783 10.6303 1.30212 12.5 1.30212C14.3697 1.30212 15.8854 2.81783 15.8854 4.68754C15.8854 6.55725 14.3697 8.07296 12.5 8.07296C10.6303 8.07296 9.11458 6.55725 9.11458 4.68754Z" fill="#4B4B4B"/>
<path fill-rule="evenodd" clip-rule="evenodd" d="M1.30208 22.9167C1.30208 19.6088 3.9837 16.9271 7.29166 16.9271C10.5996 16.9271 13.2812 19.6088 13.2812 22.9167C13.2812 23.3482 12.9315 23.698 12.5 23.698C12.0685 23.698 11.7187 23.3482 11.7187 22.9167C11.7187 20.4717 9.73665 18.4896 7.29166 18.4896C4.84665 18.4896 2.86458 20.4717 2.86458 22.9167C2.86458 23.3482 2.5148 23.698 2.08333 23.698C1.65186 23.698 1.30208 23.3482 1.30208 22.9167Z" fill="#4B4B4B"/>
<path fill-rule="evenodd" clip-rule="evenodd" d="M11.7188 22.9167C11.7188 19.6088 14.4004 16.9271 17.7083 16.9271C21.0163 16.9271 23.6979 19.6088 23.6979 22.9167C23.6979 23.3482 23.3481 23.698 22.9167 23.698C22.4852 23.698 22.1354 23.3482 22.1354 22.9167C22.1354 20.4717 20.1533 18.4896 17.7083 18.4896C15.2633 18.4896 13.2813 20.4717 13.2813 22.9167C13.2813 23.3482 12.9315 23.698 12.5 23.698C12.0685 23.698 11.7188 23.3482 11.7188 22.9167Z" fill="#4B4B4B"/>
<path fill-rule="evenodd" clip-rule="evenodd" d="M6.51042 12.5C6.51042 9.19203 9.19207 6.51038 12.5 6.51038C15.8079 6.51038 18.4896 9.19203 18.4896 12.5C18.4896 12.9314 18.1398 13.2812 17.7083 13.2812C17.2769 13.2812 16.9271 12.9314 16.9271 12.5C16.9271 10.055 14.945 8.07288 12.5 8.07288C10.055 8.07288 8.07292 10.055 8.07292 12.5C8.07292 12.9314 7.72314 13.2812 7.29167 13.2812C6.8602 13.2812 6.51042 12.9314 6.51042 12.5Z" fill="#4B4B4B"/>
</svg>
