<svg width="25" height="25" viewBox="0 0 25 25" fill="none" xmlns="http://www.w3.org/2000/svg">
<path d="M12.0119 2.51495C12.2973 2.28668 12.7027 2.28668 12.988 2.51495L23.4047 10.8483C23.7416 11.1178 23.7962 11.6095 23.5267 11.9464C23.2572 12.2833 22.7655 12.3379 22.4286 12.0684L21.0937 11.0005V21.875C21.0937 22.3065 20.744 22.6562 20.3125 22.6562H4.68749C4.25602 22.6562 3.90624 22.3065 3.90624 21.875V11.0005L2.57137 12.0684C2.23445 12.3379 1.74281 12.2833 1.47327 11.9464C1.20373 11.6095 1.25836 11.1178 1.59528 10.8483L4.19945 8.76495C4.1995 8.76491 4.1994 8.76498 4.19945 8.76495L12.0119 2.51495ZM5.46874 9.75049V21.0937H19.5312V9.75049L12.5 4.12549L5.46874 9.75049Z" fill="#1C1B1E"/>
<path d="M8.07292 12.5C8.07292 12.0685 8.4227 11.7188 8.85417 11.7188H16.1458C16.5773 11.7188 16.9271 12.0685 16.9271 12.5C16.9271 12.9315 16.5773 13.2812 16.1458 13.2812H8.85417C8.4227 13.2812 8.07292 12.9315 8.07292 12.5Z" fill="#1C1B1E"/>
<path d="M8.07292 15.625C8.07292 15.1935 8.4227 14.8438 8.85417 14.8438H16.1458C16.5773 14.8438 16.9271 15.1935 16.9271 15.625C16.9271 16.0565 16.5773 16.4062 16.1458 16.4062H8.85417C8.4227 16.4062 8.07292 16.0565 8.07292 15.625Z" fill="#1C1B1E"/>
<path d="M12.9892 9.34345C13.2943 9.03835 13.789 9.03835 14.0941 9.34345L16.6983 11.9476C17.0034 12.2527 17.0034 12.7474 16.6983 13.0525C16.3932 13.3576 15.8985 13.3576 15.5934 13.0525L12.9892 10.4483C12.6841 10.1432 12.6841 9.64854 12.9892 9.34345Z" fill="#1C1B1E"/>
<path d="M8.30174 15.0726C8.60684 14.7675 9.1015 14.7675 9.4066 15.0726L12.0108 17.6767C12.3159 17.9818 12.3159 18.4765 12.0108 18.7816C11.7057 19.0867 11.211 19.0867 10.9059 18.7816L8.30174 16.1774C7.99665 15.8723 7.99665 15.3777 8.30174 15.0726Z" fill="#1C1B1E"/>
</svg>
