<svg width="25" height="25" viewBox="0 0 25 25" fill="none" xmlns="http://www.w3.org/2000/svg">
<path fill-rule="evenodd" clip-rule="evenodd" d="M3.38542 3.12504C3.38542 2.11827 4.20157 1.30212 5.20834 1.30212H16.1458C16.3673 1.30212 16.5784 1.39613 16.7265 1.56075L21.414 6.76908C21.5431 6.91254 21.6146 7.09871 21.6146 7.29171V21.875C21.6146 22.8818 20.7985 23.698 19.7917 23.698H5.20834C4.20158 23.698 3.38542 22.8818 3.38542 21.875V3.12504ZM5.20834 2.86462C5.06451 2.86462 4.94792 2.98122 4.94792 3.12504V21.875C4.94792 22.0189 5.06451 22.1355 5.20834 22.1355H19.7917C19.9355 22.1355 20.0521 22.0189 20.0521 21.875V7.5915L15.7979 2.86462H5.20834Z" fill="#4B4B4B"/>
<path fill-rule="evenodd" clip-rule="evenodd" d="M13.5101 11.9476C13.8152 11.6425 14.3098 11.6425 14.6149 11.9476L17.2191 14.5517C17.5242 14.8568 17.5242 15.3515 17.2191 15.6566L14.6149 18.2608C14.3098 18.5659 13.8152 18.5659 13.5101 18.2608C13.205 17.9557 13.205 17.461 13.5101 17.1559L15.5618 15.1042L13.5101 13.0524C13.205 12.7473 13.205 12.2527 13.5101 11.9476Z" fill="#4B4B4B"/>
<path fill-rule="evenodd" clip-rule="evenodd" d="M11.4899 11.9476C11.795 12.2527 11.795 12.7473 11.4899 13.0524L9.43818 15.1042L11.4899 17.1559C11.795 17.461 11.795 17.9557 11.4899 18.2608C11.1848 18.5659 10.6902 18.5659 10.3851 18.2608L7.7809 15.6566C7.4758 15.3515 7.4758 14.8568 7.7809 14.5517L10.3851 11.9476C10.6902 11.6425 11.1848 11.6425 11.4899 11.9476Z" fill="#4B4B4B"/>
<path fill-rule="evenodd" clip-rule="evenodd" d="M15.625 1.30212C16.0565 1.30212 16.4062 1.6519 16.4062 2.08337V6.51046H20.8333C21.2648 6.51046 21.6146 6.86023 21.6146 7.29171C21.6146 7.72318 21.2648 8.07296 20.8333 8.07296H15.625C15.1935 8.07296 14.8438 7.72318 14.8438 7.29171V2.08337C14.8438 1.6519 15.1935 1.30212 15.625 1.30212Z" fill="#4B4B4B"/>
</svg>
