<svg width="25" height="25" viewBox="0 0 25 25" fill="none" xmlns="http://www.w3.org/2000/svg">
<path fill-rule="evenodd" clip-rule="evenodd" d="M3.38542 3.12498C3.38542 2.11821 4.20157 1.30206 5.20834 1.30206H16.1458C16.3673 1.30206 16.5784 1.39606 16.7265 1.56068L21.414 6.76902C21.5431 6.91247 21.6146 7.09865 21.6146 7.29165V21.875C21.6146 22.8818 20.7985 23.6979 19.7917 23.6979H5.20834C4.20158 23.6979 3.38542 22.8818 3.38542 21.875V3.12498ZM5.20834 2.86456C5.06451 2.86456 4.94792 2.98116 4.94792 3.12498V21.875C4.94792 22.0188 5.06451 22.1354 5.20834 22.1354H19.7917C19.9355 22.1354 20.0521 22.0188 20.0521 21.875V7.59144L15.7979 2.86456H5.20834Z" fill="#4B4B4B"/>
<path fill-rule="evenodd" clip-rule="evenodd" d="M17.1614 11.3745C17.4953 11.6477 17.5445 12.1399 17.2713 12.4739L12.5838 18.203C12.4518 18.3643 12.2609 18.4662 12.0534 18.486C11.8459 18.5058 11.6391 18.4419 11.479 18.3085L8.35402 15.7043C8.02255 15.4281 7.97777 14.9355 8.25399 14.604C8.53021 14.2725 9.02284 14.2278 9.3543 14.504L11.8737 16.6035L16.062 11.4844C16.3352 11.1505 16.8274 11.1013 17.1614 11.3745Z" fill="#4B4B4B"/>
<path fill-rule="evenodd" clip-rule="evenodd" d="M15.625 1.30206C16.0565 1.30206 16.4062 1.65184 16.4062 2.08331V6.5104H20.8333C21.2648 6.5104 21.6146 6.86017 21.6146 7.29165C21.6146 7.72312 21.2648 8.0729 20.8333 8.0729H15.625C15.1935 8.0729 14.8438 7.72312 14.8438 7.29165V2.08331C14.8438 1.65184 15.1935 1.30206 15.625 1.30206Z" fill="#4B4B4B"/>
</svg>
