<svg width="25" height="25" viewBox="0 0 25 25" fill="none" xmlns="http://www.w3.org/2000/svg">
<path fill-rule="evenodd" clip-rule="evenodd" d="M3.38542 3.12498C3.38542 2.11821 4.20157 1.30206 5.20834 1.30206H16.1458C16.3673 1.30206 16.5784 1.39606 16.7265 1.56068L21.414 6.76902C21.5431 6.91247 21.6146 7.09865 21.6146 7.29165V21.875C21.6146 22.8818 20.7985 23.6979 19.7917 23.6979H5.20834C4.20158 23.6979 3.38542 22.8818 3.38542 21.875V3.12498ZM5.20834 2.86456C5.06451 2.86456 4.94792 2.98116 4.94792 3.12498V21.875C4.94792 22.0188 5.06451 22.1354 5.20834 22.1354H19.7917C19.9355 22.1354 20.0521 22.0188 20.0521 21.875V7.59144L15.7979 2.86456H5.20834Z" fill="#4B4B4B"/>
<path fill-rule="evenodd" clip-rule="evenodd" d="M8.07292 13.0208C8.07292 12.5893 8.4227 12.2396 8.85417 12.2396H16.1458C16.5773 12.2396 16.9271 12.5893 16.9271 13.0208C16.9271 13.4523 16.5773 13.8021 16.1458 13.8021H8.85417C8.4227 13.8021 8.07292 13.4523 8.07292 13.0208Z" fill="#4B4B4B"/>
<path fill-rule="evenodd" clip-rule="evenodd" d="M8.07292 16.1458C8.07292 15.7143 8.4227 15.3646 8.85417 15.3646H16.1458C16.5773 15.3646 16.9271 15.7143 16.9271 16.1458C16.9271 16.5773 16.5773 16.9271 16.1458 16.9271H8.85417C8.4227 16.9271 8.07292 16.5773 8.07292 16.1458Z" fill="#4B4B4B"/>
<path fill-rule="evenodd" clip-rule="evenodd" d="M12.9892 9.86426C13.2943 9.55916 13.789 9.55916 14.0941 9.86426L16.6983 12.4684C17.0034 12.7735 17.0034 13.2682 16.6983 13.5733C16.3932 13.8784 15.8985 13.8784 15.5934 13.5733L12.9892 10.9691C12.6841 10.664 12.6841 10.1694 12.9892 9.86426Z" fill="#4B4B4B"/>
<path fill-rule="evenodd" clip-rule="evenodd" d="M8.30174 15.5934C8.60684 15.2883 9.1015 15.2883 9.4066 15.5934L12.0108 18.1976C12.3159 18.5026 12.3159 18.9973 12.0108 19.3024C11.7057 19.6075 11.211 19.6075 10.9059 19.3024L8.30174 16.6982C7.99665 16.3931 7.99665 15.8985 8.30174 15.5934Z" fill="#4B4B4B"/>
<path fill-rule="evenodd" clip-rule="evenodd" d="M15.625 1.30206C16.0565 1.30206 16.4062 1.65184 16.4062 2.08331V6.5104H20.8333C21.2648 6.5104 21.6146 6.86017 21.6146 7.29165C21.6146 7.72312 21.2648 8.0729 20.8333 8.0729H15.625C15.1935 8.0729 14.8438 7.72312 14.8438 7.29165V2.08331C14.8438 1.65184 15.1935 1.30206 15.625 1.30206Z" fill="#4B4B4B"/>
</svg>
