<svg width="25" height="25" viewBox="0 0 25 25" fill="none" xmlns="http://www.w3.org/2000/svg">
<path fill-rule="evenodd" clip-rule="evenodd" d="M1.30208 3.64587C1.30208 3.2144 1.65186 2.86462 2.08333 2.86462H22.9167C23.3481 2.86462 23.6979 3.2144 23.6979 3.64587C23.6979 4.07735 23.3481 4.42712 22.9167 4.42712H2.08333C1.65186 4.42712 1.30208 4.07735 1.30208 3.64587Z" fill="#4B4B4B"/>
<path fill-rule="evenodd" clip-rule="evenodd" d="M1.30208 11.9792C1.30208 11.5478 1.65186 11.198 2.08333 11.198H7.8125C8.24397 11.198 8.59375 11.5478 8.59375 11.9792C8.59375 12.4107 8.24397 12.7605 7.8125 12.7605H2.08333C1.65186 12.7605 1.30208 12.4107 1.30208 11.9792Z" fill="#4B4B4B"/>
<path fill-rule="evenodd" clip-rule="evenodd" d="M1.30208 20.3126C1.30208 19.8811 1.65186 19.5313 2.08333 19.5313H7.8125C8.24397 19.5313 8.59375 19.8811 8.59375 20.3126C8.59375 20.744 8.24397 21.0938 7.8125 21.0938H2.08333C1.65186 21.0938 1.30208 20.744 1.30208 20.3126Z" fill="#4B4B4B"/>
<path fill-rule="evenodd" clip-rule="evenodd" d="M11.1979 13.2813C11.1979 10.4049 13.5298 8.073 16.4063 8.073C19.2827 8.073 21.6146 10.4049 21.6146 13.2813C21.6146 16.1578 19.2827 18.4897 16.4063 18.4897C13.5298 18.4897 11.1979 16.1578 11.1979 13.2813ZM16.4063 9.6355C14.3927 9.6355 12.7604 11.2678 12.7604 13.2813C12.7604 15.2949 14.3927 16.9272 16.4063 16.9272C18.4198 16.9272 20.0521 15.2949 20.0521 13.2813C20.0521 11.2678 18.4198 9.6355 16.4063 9.6355Z" fill="#4B4B4B"/>
<path fill-rule="evenodd" clip-rule="evenodd" d="M18.7204 16.1123C19.0266 15.8083 19.5212 15.8101 19.8252 16.1163L23.4711 19.7884C23.7751 20.0946 23.7733 20.5893 23.4671 20.8933C23.1609 21.1973 22.6663 21.1955 22.3623 20.8893L18.7164 17.2172C18.4124 16.911 18.4142 16.4163 18.7204 16.1123Z" fill="#4B4B4B"/>
</svg>
