<svg width="25" height="25" viewBox="0 0 25 25" fill="none" xmlns="http://www.w3.org/2000/svg">
<path fill-rule="evenodd" clip-rule="evenodd" d="M4.6875 3.90625C4.25603 3.90625 3.90625 4.25603 3.90625 4.6875V20.3125C3.90625 20.744 4.25603 21.0937 4.6875 21.0937H20.3125C20.744 21.0937 21.0937 20.744 21.0937 20.3125V4.6875C21.0937 4.25603 20.744 3.90625 20.3125 3.90625H4.6875ZM2.34375 4.6875C2.34375 3.39308 3.39308 2.34375 4.6875 2.34375H20.3125C21.6069 2.34375 22.6562 3.39308 22.6562 4.6875V20.3125C22.6562 21.6069 21.6069 22.6562 20.3125 22.6562H4.6875C3.39308 22.6562 2.34375 21.6069 2.34375 20.3125V4.6875Z" fill="#4B4B4B"/>
<path fill-rule="evenodd" clip-rule="evenodd" d="M2.34375 7.29169C2.34375 6.86021 2.69353 6.51044 3.125 6.51044H20.8333C21.2648 6.51044 21.6146 6.86021 21.6146 7.29169C21.6146 7.72316 21.2648 8.07294 20.8333 8.07294H3.125C2.69353 8.07294 2.34375 7.72316 2.34375 7.29169Z" fill="#4B4B4B"/>
<path fill-rule="evenodd" clip-rule="evenodd" d="M14.8438 11.4583C14.8438 11.0268 15.1935 10.6771 15.625 10.6771H21.875C22.3065 10.6771 22.6562 11.0268 22.6562 11.4583C22.6562 11.8898 22.3065 12.2396 21.875 12.2396H15.625C15.1935 12.2396 14.8438 11.8898 14.8438 11.4583Z" fill="#4B4B4B"/>
<path fill-rule="evenodd" clip-rule="evenodd" d="M14.8438 15.625C14.8438 15.1935 15.1935 14.8438 15.625 14.8438H21.875C22.3065 14.8438 22.6562 15.1935 22.6562 15.625C22.6562 16.0565 22.3065 16.4062 21.875 16.4062H15.625C15.1935 16.4062 14.8438 16.0565 14.8438 15.625Z" fill="#4B4B4B"/>
<path fill-rule="evenodd" clip-rule="evenodd" d="M11.1979 11.4583C11.1979 11.0268 11.5477 10.6771 11.9792 10.6771H12.5C12.9315 10.6771 13.2813 11.0268 13.2813 11.4583C13.2813 11.8898 12.9315 12.2396 12.5 12.2396H11.9792C11.5477 12.2396 11.1979 11.8898 11.1979 11.4583Z" fill="#4B4B4B"/>
<path fill-rule="evenodd" clip-rule="evenodd" d="M11.1979 15.625C11.1979 15.1935 11.5477 14.8438 11.9792 14.8438H12.5C12.9315 14.8438 13.2813 15.1935 13.2813 15.625C13.2813 16.0565 12.9315 16.4062 12.5 16.4062H11.9792C11.5477 16.4062 11.1979 16.0565 11.1979 15.625Z" fill="#4B4B4B"/>
<path fill-rule="evenodd" clip-rule="evenodd" d="M7.29167 2.34375C7.72314 2.34375 8.07292 2.69353 8.07292 3.125V21.875C8.07292 22.3065 7.72314 22.6562 7.29167 22.6562C6.8602 22.6562 6.51042 22.3065 6.51042 21.875V3.125C6.51042 2.69353 6.8602 2.34375 7.29167 2.34375Z" fill="#4B4B4B"/>
</svg>
