<svg width="25" height="25" viewBox="0 0 25 25" fill="none" xmlns="http://www.w3.org/2000/svg">
<path fill-rule="evenodd" clip-rule="evenodd" d="M5.20834 2.86462C5.06451 2.86462 4.94792 2.98122 4.94792 3.12504V21.875C4.94792 22.0189 5.06451 22.1355 5.20834 22.1355H19.7917C19.9355 22.1355 20.0521 22.0189 20.0521 21.875V3.12504C20.0521 2.98122 19.9355 2.86462 19.7917 2.86462H5.20834ZM3.38542 3.12504C3.38542 2.11827 4.20157 1.30212 5.20834 1.30212H19.7917C20.7984 1.30212 21.6146 2.11827 21.6146 3.12504V21.875C21.6146 22.8818 20.7984 23.698 19.7917 23.698H5.20834C4.20157 23.698 3.38542 22.8818 3.38542 21.875V3.12504Z" fill="#4B4B4B"/>
<path fill-rule="evenodd" clip-rule="evenodd" d="M9.63542 7.81246C9.63542 6.23041 10.918 4.94788 12.5 4.94788C14.0821 4.94788 15.3646 6.23041 15.3646 7.81246C15.3646 9.39451 14.0821 10.677 12.5 10.677C10.918 10.677 9.63542 9.39451 9.63542 7.81246ZM12.5 6.51038C11.7809 6.51038 11.1979 7.09336 11.1979 7.81246C11.1979 8.53156 11.7809 9.11454 12.5 9.11454C13.2191 9.11454 13.8021 8.53156 13.8021 7.81246C13.8021 7.09336 13.2191 6.51038 12.5 6.51038Z" fill="#4B4B4B"/>
<path fill-rule="evenodd" clip-rule="evenodd" d="M8.59375 13.0209C8.59375 10.8635 10.3426 9.11462 12.5 9.11462C14.6574 9.11462 16.4062 10.8635 16.4062 13.0209C16.4062 13.4523 16.0565 13.8021 15.625 13.8021C15.1935 13.8021 14.8437 13.4523 14.8437 13.0209C14.8437 11.7265 13.7944 10.6771 12.5 10.6771C11.2056 10.6771 10.1562 11.7265 10.1562 13.0209C10.1562 13.4523 9.80647 13.8021 9.375 13.8021C8.94353 13.8021 8.59375 13.4523 8.59375 13.0209Z" fill="#4B4B4B"/>
<path fill-rule="evenodd" clip-rule="evenodd" d="M8.59375 16.1459C8.59375 15.7144 8.94353 15.3646 9.375 15.3646H15.625C16.0565 15.3646 16.4062 15.7144 16.4062 16.1459C16.4062 16.5773 16.0565 16.9271 15.625 16.9271H9.375C8.94353 16.9271 8.59375 16.5773 8.59375 16.1459Z" fill="#4B4B4B"/>
<path fill-rule="evenodd" clip-rule="evenodd" d="M8.59375 19.2709C8.59375 18.8394 8.94353 18.4896 9.375 18.4896H13.0208C13.4523 18.4896 13.8021 18.8394 13.8021 19.2709C13.8021 19.7023 13.4523 20.0521 13.0208 20.0521H9.375C8.94353 20.0521 8.59375 19.7023 8.59375 19.2709Z" fill="#4B4B4B"/>
</svg>
