<svg width="25" height="25" viewBox="0 0 25 25" fill="none" xmlns="http://www.w3.org/2000/svg">
<path fill-rule="evenodd" clip-rule="evenodd" d="M4.58187 4.58187C6.60747 2.55631 9.40802 1.30208 12.5 1.30208C15.592 1.30208 18.3925 2.55631 20.4181 4.58187L19.8657 5.1343L20.4181 4.58187C22.4437 6.60746 23.6979 9.40801 23.6979 12.5C23.6979 15.592 22.4437 18.3925 20.4181 20.4181C18.3925 22.4437 15.592 23.6979 12.5 23.6979C9.40801 23.6979 6.60746 22.4437 4.58187 20.4181L5.1343 19.8657L4.58187 20.4181C2.55631 18.3925 1.30208 15.592 1.30208 12.5C1.30208 9.40802 2.55631 6.60747 4.58187 4.58187L4.58187 4.58187ZM12.5 2.86458C9.83906 2.86458 7.43127 3.9422 5.68672 5.68673C3.94219 7.43128 2.86458 9.83906 2.86458 12.5C2.86458 15.1609 3.9422 17.5687 5.68673 19.3132C7.43128 21.0578 9.83906 22.1354 12.5 22.1354C15.1609 22.1354 17.5687 21.0578 19.3132 19.3132C21.0578 17.5687 22.1354 15.1609 22.1354 12.5C22.1354 9.83906 21.0578 7.43128 19.3132 5.68673C17.5687 3.9422 15.1609 2.86458 12.5 2.86458Z" fill="#4B4B4B"/>
<path fill-rule="evenodd" clip-rule="evenodd" d="M12.5 5.72917C13.2191 5.72917 13.8021 6.31214 13.8021 7.03126C13.8021 7.75037 13.2191 8.33334 12.5 8.33334C11.7809 8.33334 11.1979 7.75037 11.1979 7.03126C11.1979 6.31214 11.7809 5.72917 12.5 5.72917Z" fill="#4B4B4B"/>
<path fill-rule="evenodd" clip-rule="evenodd" d="M10.9375 10.4167C10.9375 9.9852 11.2873 9.63542 11.7188 9.63542H12.7604C13.1919 9.63542 13.5417 9.9852 13.5417 10.4167V17.7083C13.5417 18.1398 13.1919 18.4896 12.7604 18.4896C12.3289 18.4896 11.9792 18.1398 11.9792 17.7083V11.1979H11.7188C11.2873 11.1979 10.9375 10.8481 10.9375 10.4167Z" fill="#4B4B4B"/>
<path fill-rule="evenodd" clip-rule="evenodd" d="M10.1562 17.7083C10.1562 17.2769 10.506 16.9271 10.9375 16.9271H14.5833C15.0148 16.9271 15.3646 17.2769 15.3646 17.7083C15.3646 18.1398 15.0148 18.4896 14.5833 18.4896H10.9375C10.506 18.4896 10.1562 18.1398 10.1562 17.7083Z" fill="#4B4B4B"/>
</svg>
