<svg width="25" height="25" viewBox="0 0 25 25" fill="none" xmlns="http://www.w3.org/2000/svg">
<path fill-rule="evenodd" clip-rule="evenodd" d="M7.29167 2.86459C6.8602 2.86459 6.51042 3.21437 6.51042 3.64584V21.3542C6.51042 21.7857 6.8602 22.1354 7.29167 22.1354H17.7083C18.1398 22.1354 18.4896 21.7857 18.4896 21.3542V3.64584C18.4896 3.21437 18.1398 2.86459 17.7083 2.86459H7.29167ZM4.94792 3.64584C4.94792 2.35143 5.99725 1.30209 7.29167 1.30209H17.7083C19.0028 1.30209 20.0521 2.35143 20.0521 3.64584V21.3542C20.0521 22.6486 19.0028 23.6979 17.7083 23.6979H7.29167C5.99725 23.6979 4.94792 22.6486 4.94792 21.3542V3.64584Z" fill="#4B4B4B"/>
<path fill-rule="evenodd" clip-rule="evenodd" d="M10.6771 5.20834C10.6771 4.77687 11.0269 4.42709 11.4583 4.42709H13.5417C13.9731 4.42709 14.3229 4.77687 14.3229 5.20834C14.3229 5.63982 13.9731 5.98959 13.5417 5.98959H11.4583C11.0269 5.98959 10.6771 5.63982 10.6771 5.20834Z" fill="#4B4B4B"/>
<path fill-rule="evenodd" clip-rule="evenodd" d="M9.63542 19.7917C9.63542 19.3602 9.9852 19.0104 10.4167 19.0104H14.5833C15.0148 19.0104 15.3646 19.3602 15.3646 19.7917C15.3646 20.2231 15.0148 20.5729 14.5833 20.5729H10.4167C9.9852 20.5729 9.63542 20.2231 9.63542 19.7917Z" fill="#4B4B4B"/>
</svg>
