<svg width="25" height="25" viewBox="0 0 25 25" fill="none" xmlns="http://www.w3.org/2000/svg">
<path fill-rule="evenodd" clip-rule="evenodd" d="M3.38542 3.12498C3.38542 2.11821 4.20157 1.30206 5.20834 1.30206H15.7224C16.1975 1.30206 16.6539 1.48757 16.9943 1.81909C16.9943 1.8191 16.9943 1.81911 16.9943 1.81911L21.0635 5.78237C21.4159 6.12554 21.6146 6.5965 21.6146 7.08826V21.875C21.6146 22.8818 20.7985 23.6979 19.7917 23.6979H5.20834C4.20158 23.6979 3.38542 22.8818 3.38542 21.875V3.12498ZM5.20834 2.86456C5.06451 2.86456 4.94792 2.98116 4.94792 3.12498V21.875C4.94792 22.0188 5.06451 22.1354 5.20834 22.1354H19.7917C19.9355 22.1354 20.0521 22.0188 20.0521 21.875V7.08826C20.0521 7.01805 20.0237 6.95078 19.9734 6.90175L19.9734 6.90173L15.9041 2.93842L15.9041 2.9384C15.8555 2.89107 15.7903 2.86456 15.7224 2.86456H5.20834Z" fill="#4B4B4B"/>
<path fill-rule="evenodd" clip-rule="evenodd" d="M3.38542 10.9375C3.38542 10.506 3.7352 10.1562 4.16667 10.1562H20.8333C21.2648 10.1562 21.6146 10.506 21.6146 10.9375C21.6146 11.369 21.2648 11.7187 20.8333 11.7187H4.16667C3.7352 11.7187 3.38542 11.369 3.38542 10.9375Z" fill="#4B4B4B"/>
<path fill-rule="evenodd" clip-rule="evenodd" d="M14.8438 15.1042C14.8438 14.6727 15.1935 14.3229 15.625 14.3229H20.8333C21.2648 14.3229 21.6146 14.6727 21.6146 15.1042C21.6146 15.5357 21.2648 15.8854 20.8333 15.8854H15.625C15.1935 15.8854 14.8438 15.5357 14.8438 15.1042Z" fill="#4B4B4B"/>
<path fill-rule="evenodd" clip-rule="evenodd" d="M14.8438 18.75C14.8438 18.3185 15.1935 17.9688 15.625 17.9688H20.8333C21.2648 17.9688 21.6146 18.3185 21.6146 18.75C21.6146 19.1815 21.2648 19.5312 20.8333 19.5312H15.625C15.1935 19.5312 14.8438 19.1815 14.8438 18.75Z" fill="#4B4B4B"/>
<path fill-rule="evenodd" clip-rule="evenodd" d="M15.625 10.1562C16.0565 10.1562 16.4062 10.506 16.4062 10.9375V22.9167C16.4062 23.3481 16.0565 23.6979 15.625 23.6979C15.1935 23.6979 14.8438 23.3481 14.8438 22.9167V10.9375C14.8438 10.506 15.1935 10.1562 15.625 10.1562Z" fill="#4B4B4B"/>
<path fill-rule="evenodd" clip-rule="evenodd" d="M9.375 10.1562C9.80647 10.1562 10.1562 10.506 10.1562 10.9375V22.9167C10.1562 23.3481 9.80647 23.6979 9.375 23.6979C8.94353 23.6979 8.59375 23.3481 8.59375 22.9167V10.9375C8.59375 10.506 8.94353 10.1562 9.375 10.1562Z" fill="#4B4B4B"/>
<path fill-rule="evenodd" clip-rule="evenodd" d="M3.38542 17.1875C3.38542 16.756 3.7352 16.4062 4.16667 16.4062H9.375C9.80648 16.4062 10.1563 16.756 10.1563 17.1875C10.1563 17.619 9.80648 17.9687 9.375 17.9687H4.16667C3.7352 17.9687 3.38542 17.619 3.38542 17.1875Z" fill="#4B4B4B"/>
</svg>
