<svg width="25" height="25" viewBox="0 0 25 25" fill="none" xmlns="http://www.w3.org/2000/svg">
<path fill-rule="evenodd" clip-rule="evenodd" d="M1.30208 3.125C1.30208 2.69353 1.65186 2.34375 2.08333 2.34375H17.7083C18.1398 2.34375 18.4896 2.69353 18.4896 3.125C18.4896 3.55647 18.1398 3.90625 17.7083 3.90625H2.86458V17.9688H9.89583C10.103 17.9688 10.3017 18.0511 10.4483 18.1976L12.5 20.2493L14.5517 18.1976C14.6982 18.0511 14.897 17.9688 15.1042 17.9688H22.1354V8.33333C22.1354 7.90186 22.4852 7.55208 22.9167 7.55208C23.3481 7.55208 23.6979 7.90186 23.6979 8.33333V18.75C23.6979 19.1815 23.3481 19.5313 22.9167 19.5313H15.4278L13.0524 21.9066C12.7473 22.2117 12.2527 22.2117 11.9476 21.9066L9.57222 19.5313H2.08333C1.65186 19.5313 1.30208 19.1815 1.30208 18.75V3.125Z" fill="#4B4B4B"/>
<path fill-rule="evenodd" clip-rule="evenodd" d="M11.1979 10.4166C11.1979 9.98515 11.5477 9.63538 11.9792 9.63538H13.0221C13.4536 9.63538 13.8034 9.98515 13.8034 10.4166C13.8034 10.8481 13.4536 11.1979 13.0221 11.1979H11.9792C11.5477 11.1979 11.1979 10.8481 11.1979 10.4166Z" fill="#4B4B4B"/>
<path fill-rule="evenodd" clip-rule="evenodd" d="M16.4068 10.4166C16.4068 9.98515 16.7566 9.63538 17.1881 9.63538H18.2292C18.6606 9.63538 19.0104 9.98515 19.0104 10.4166C19.0104 10.8481 18.6606 11.1979 18.2292 11.1979H17.1881C16.7566 11.1979 16.4068 10.8481 16.4068 10.4166Z" fill="#4B4B4B"/>
<path fill-rule="evenodd" clip-rule="evenodd" d="M5.9901 10.4166C5.9901 9.98515 6.33987 9.63538 6.77135 9.63538H7.81244C8.24391 9.63538 8.59369 9.98515 8.59369 10.4166C8.59369 10.8481 8.24391 11.1979 7.81244 11.1979H6.77135C6.33987 11.1979 5.9901 10.8481 5.9901 10.4166Z" fill="#4B4B4B"/>
<path d="M22.3958 5.20837C23.2588 5.20837 23.9583 4.50882 23.9583 3.64587C23.9583 2.78293 23.2588 2.08337 22.3958 2.08337C21.5329 2.08337 20.8333 2.78293 20.8333 3.64587C20.8333 4.50882 21.5329 5.20837 22.3958 5.20837Z" fill="#4B4B4B"/>
</svg>
