<svg width="25" height="25" viewBox="0 0 25 25" fill="none" xmlns="http://www.w3.org/2000/svg">
<path fill-rule="evenodd" clip-rule="evenodd" d="M1.30208 10.9375C1.30208 5.61601 5.61602 1.30206 10.9375 1.30206C16.259 1.30206 20.5729 5.61601 20.5729 10.9375C20.5729 16.259 16.259 20.5729 10.9375 20.5729C5.61602 20.5729 1.30208 16.259 1.30208 10.9375ZM10.9375 2.86456C6.47897 2.86456 2.86458 6.47895 2.86458 10.9375C2.86458 15.396 6.47897 19.0104 10.9375 19.0104C15.396 19.0104 19.0104 15.396 19.0104 10.9375C19.0104 6.47895 15.396 2.86456 10.9375 2.86456Z" fill="#4B4B4B"/>
<path fill-rule="evenodd" clip-rule="evenodd" d="M7.43879 6.91792C8.33337 6.0234 9.57141 5.46875 10.9375 5.46875C12.3036 5.46875 13.5416 6.0234 14.4362 6.91794C14.7413 7.22303 14.7413 7.71769 14.4362 8.02279C14.1311 8.32789 13.6364 8.32789 13.3313 8.02279C12.7178 7.40931 11.8726 7.03125 10.9375 7.03125C10.0024 7.03125 9.15715 7.40931 8.5436 8.02281C8.2385 8.3279 7.74384 8.32788 7.43875 8.02277C7.13366 7.71766 7.13368 7.223 7.43879 6.91792Z" fill="#4B4B4B"/>
<path fill-rule="evenodd" clip-rule="evenodd" d="M16.7506 16.7506C17.0557 16.4455 17.5504 16.4455 17.8555 16.7506L22.2749 21.17C22.58 21.4751 22.58 21.9698 22.2749 22.2749C21.9698 22.58 21.4751 22.58 21.17 22.2749L16.7506 17.8555C16.4455 17.5504 16.4455 17.0557 16.7506 16.7506Z" fill="#4B4B4B"/>
</svg>
