<svg width="25" height="25" viewBox="0 0 25 25" fill="none" xmlns="http://www.w3.org/2000/svg">
<path fill-rule="evenodd" clip-rule="evenodd" d="M22.9483 2.05172C23.1605 2.26394 23.2324 2.57896 23.1332 2.86223L16.2061 22.6539C16.1003 22.9562 15.8207 23.1634 15.5006 23.1764C15.1805 23.1895 14.8849 23.0058 14.7548 22.7131L10.9185 14.0814L2.28686 10.2451C1.99415 10.115 1.8105 9.81945 1.82356 9.49938C1.83662 9.17932 2.04373 8.89966 2.34607 8.79384L22.1377 1.86676C22.421 1.76761 22.736 1.8395 22.9483 2.05172ZM4.72219 9.61764L11.8277 12.7756C12.0045 12.8542 12.1458 12.9955 12.2243 13.1723L15.3823 20.2778L21.1224 3.87756L4.72219 9.61764Z" fill="#4B4B4B"/>
<path fill-rule="evenodd" clip-rule="evenodd" d="M22.9483 2.05176C23.2534 2.35686 23.2534 2.85152 22.9483 3.15661L12.0629 14.042C11.7578 14.3471 11.2631 14.3471 10.958 14.042C10.6529 13.7369 10.6529 13.2423 10.958 12.9372L21.8435 2.05176C22.1486 1.74666 22.6432 1.74666 22.9483 2.05176Z" fill="#4B4B4B"/>
</svg>
