<svg width="25" height="25" viewBox="0 0 25 25" fill="none" xmlns="http://www.w3.org/2000/svg">
<path fill-rule="evenodd" clip-rule="evenodd" d="M5.76076 3.61423C6.06585 3.91933 6.06585 4.41399 5.76076 4.71908L3.18818 7.29166L5.76076 9.86423C6.06585 10.1693 6.06585 10.664 5.76076 10.9691C5.45566 11.2742 4.961 11.2742 4.6559 10.9691L1.5309 7.84408C1.2258 7.53899 1.2258 7.04433 1.5309 6.73923L4.6559 3.61423C4.961 3.30913 5.45566 3.30913 5.76076 3.61423Z" fill="#4B4B4B"/>
<path fill-rule="evenodd" clip-rule="evenodd" d="M19.2392 14.0309C19.5443 13.7258 20.039 13.7258 20.3441 14.0309L23.4691 17.1559C23.7742 17.461 23.7742 17.9557 23.4691 18.2608L20.3441 21.3858C20.039 21.6909 19.5443 21.6909 19.2392 21.3858C18.9341 21.0807 18.9341 20.586 19.2392 20.2809L21.8118 17.7083L19.2392 15.1358C18.9341 14.8307 18.9341 14.336 19.2392 14.0309Z" fill="#4B4B4B"/>
<path fill-rule="evenodd" clip-rule="evenodd" d="M1.30208 7.29166C1.30208 6.86018 1.65186 6.51041 2.08333 6.51041H22.9167C23.3481 6.51041 23.6979 6.86018 23.6979 7.29166C23.6979 7.72313 23.3481 8.07291 22.9167 8.07291H2.08333C1.65186 8.07291 1.30208 7.72313 1.30208 7.29166Z" fill="#4B4B4B"/>
<path fill-rule="evenodd" clip-rule="evenodd" d="M1.30208 17.7083C1.30208 17.2769 1.65186 16.9271 2.08333 16.9271H22.9167C23.3481 16.9271 23.6979 17.2769 23.6979 17.7083C23.6979 18.1398 23.3481 18.4896 22.9167 18.4896H2.08333C1.65186 18.4896 1.30208 18.1398 1.30208 17.7083Z" fill="#4B4B4B"/>
</svg>
