<svg width="25" height="25" viewBox="0 0 25 25" fill="none" xmlns="http://www.w3.org/2000/svg">
<mask id="mask0_8_175" style="mask-type:alpha" maskUnits="userSpaceOnUse" x="0" y="0" width="25" height="25">
<path d="M25 25L25 0L9.53674e-07 -1.09278e-06L-1.3911e-07 25L25 25Z" fill="#333333"/>
</mask>
<g mask="url(#mask0_8_175)">
<path fill-rule="evenodd" clip-rule="evenodd" d="M13.2812 21.875C13.2812 22.3065 12.9315 22.6562 12.5 22.6562L3.125 22.6562C2.69353 22.6562 2.34375 22.3065 2.34375 21.875L2.34375 3.125C2.34375 2.69353 2.69353 2.34375 3.125 2.34375L12.4957 2.34375C12.9271 2.34375 13.2769 2.69353 13.2769 3.125C13.2769 3.55647 12.9271 3.90625 12.4957 3.90625L3.90625 3.90625L3.90625 21.0937L12.5 21.0937C12.9315 21.0937 13.2812 21.4435 13.2812 21.875Z" fill="#4B4B4B"/>
<path fill-rule="evenodd" clip-rule="evenodd" d="M22.4274 11.9476C22.7325 12.2527 22.7325 12.7473 22.4274 13.0524L17.7399 17.7399C17.4348 18.045 16.9402 18.045 16.6351 17.7399C16.33 17.4348 16.33 16.9402 16.6351 16.6351L20.7701 12.5L16.6351 8.36493C16.33 8.05983 16.33 7.56517 16.6351 7.26007C16.9402 6.95498 17.4348 6.95498 17.7399 7.26007L22.4274 11.9476Z" fill="#4B4B4B"/>
<path fill-rule="evenodd" clip-rule="evenodd" d="M22.6562 12.4957C22.6562 12.9272 22.3065 13.277 21.875 13.277L8.33333 13.277C7.90186 13.277 7.55208 12.9272 7.55208 12.4957C7.55208 12.0643 7.90186 11.7145 8.33333 11.7145L21.875 11.7145C22.3065 11.7145 22.6562 12.0643 22.6562 12.4957Z" fill="#4B4B4B"/>
</g>
</svg>
